<?xml version='1.0' encoding='utf-8'?>
<svg xmlns="http://www.w3.org/2000/svg" width="69.688mm" height="63.882mm" clip-rule="evenodd" fill-rule="evenodd" image-rendering="optimizeQuality" shape-rendering="geometricPrecision" text-rendering="geometricPrecision" version="1.1" viewBox="0 0 14728 13501"> <defs> <style type="text/css">.str0 {stroke:#2B2A29;stroke-width:42.2672} .fil0 {fill:#434242} .fil2 {fill:#434242} .fil3 {fill:#FDEC19} .fil1 {fill:#7690C9}</style> </defs> <path class="fil0 str0" d="m6700 11537h224c0 335-76 812 65 1085l373 720c18 35 4 77-30 95-34 17-77 4-94-30l-356-687v690c0 38-31 69-70 69-38 0-71-31-70-69l21-706-320 703c-16 35-60 47-94 30-34-18-48-60-30-95 463-893 381-807 381-1805z"/> <path class="fil0 str0" d="m7968 11537h224c0 335-76 812 65 1085l373 720c18 35 4 77-30 95-34 17-76 4-94-30l-356-687v690c0 38-31 69-70 69-38 0-71-31-70-69l21-706-320 703c-16 35-60 47-94 30-34-18-48-60-30-95 463-893 381-807 381-1805z"/> <path class="fil1" d="m1504 4620c-387-19-989-46-1338-95-607-85 577 1213 1526 1923 445 3954 857 4119 3536 5189l2247 697 2246-632c2706-1142 3087-1303 3550-5438 866-729 1852-1817 1294-1739-284 40-806 65-1121 83-455-2478-2522-3454-4512-3711-37-292-55-690-65-859-226 295-649 347-868 731-105 184-148-362-497-769-123 256-293 656-481 847-293 18-977-415-1178-635 52 282 110 550 129 746-1930 296-4026 1179-4468 3662z"/> <circle class="fil2" cx="5443" cy="4739" r="376"/> <circle class="fil2" cx="9506" cy="4739" r="376"/> <path class="fil3" d="m7366 5632c735 0 1331-239 1331 497 0 167-1329 2352-1331 2352-1 0-1332-2187-1332-2352 0-736 596-497 1332-497z"/> </svg>