<?xml version='1.0' encoding='utf-8'?>
<svg xmlns="http://www.w3.org/2000/svg" viewBox="0 0 387.5 272.5"> <g transform="matrix(1.25 0 0 -1.25 0 272.5)"> <g transform="scale(.24)" fill="#aad4ff"> <path d="m99.367 859.72 17.688-25.789 6.211-9.411 3.199-8.093 6.398-3.012 11.102 3.012 41.402-6.211 19.196-4.707 14.3-1.508h4.707l28.793 20.519 30.297 12.801 31.992 1.692 4.707 3.011 4.704-4.703-1.696-12.801-17.5-46.117-11.293-25.41-7.715-11.297-9.785-6.211-3.011-5.082 6.21-12.801 3.387-7.7141v-9.789l-3.387-45.93-7.902-12.801-6.211-11.293-1.883-11.293-4.703-4.707v-3.012l28.793-17.503 63.793 12.796h7.906l60.594-6.586 36.508 1.504 15.996-7.714 31.805-8.0941 44.789 11.105 47.801 1.692 10.914-3.2 11.101-1.503 22.207-11.297 27.289-19.008h7.715l12.797 9.597 9.785 3.2 1.504 1.5081 20.703 9.597 23.711 3.203 51.188-1.508 41.402-5.082 19.004-6.21h8.094l39.707-9.6021 19.195-6.3979 17.5-1.5081 6.59-4.703 15.805-1.508 9.41-3.574 73.58-17.508 45.92-7.715 20.89-6.59 73.2-9.41 43.1 4.703 36.7 19.012 17.5 16 4.7001-1.504-6.4-35.012-3.01-19.199-38.39-55.531-51-41.411-44.41-25.41-28.79-9.789-28.8-3.011-17.5-6.586-33.49-3.204-55.707 1.696-17.503 1.508-30.297 11.293-30.297 12.8-12.797 4.703-1.508-1.503-6.398 4.703-35 6.402-44.602 12.609-28.793 17.508-23.711 17.692-12.797 6.402v1.504l-3.199 3.199v-19.199l1.504-63.809 15.996-50.824 12.797-19.199 44.414-43.106 8.09-1.504 7.906-4.707 12.797-4.707 8.09-6.586 6.211-9.414 7.902-57.597 14.305-44.422 12.797-44.613-17.504-35.012-15.809-3.1992-4.703-3.3868h-25.594l-1.691-1.5078h-25.406l-9.598 11.106 6.211 17.508 14.488 11.293 12.797 3.1992 4.707 4.707-1.508 22.398-23.898 60.422-20.891 28.801-17.5 11.293h-10.914l-24.09 7.718-46.105 11.293-23.899 16-66.808 60.422v1.508l-3.199 3.387h-1.504l1.504-33.504 17.504-25.602 17.5-6.211 4.703-6.586-9.407-30.117-17.503-35.199-15.809-44.426-8.09-22.586-12.797-33.508-14.113-9.4101-31.992-3.0117h-14.305l-25.594 1.5078-1.691 4.7031-15.809 7.9062-3.199 3.3868 1.504 10.918 11.293 11.297 14.301 7.9066 20.703 4.89 12.797 1.508 15.996 25.41 7.902 22.403 1.508 19.199 8.09 20.703 4.707 30.305-4.707 4.707-17.5 1.507-14.305 4.891-33.496 22.215-25.594 36.703v3.199h-12.797l-36.695-6.398-12.797 1.695-25.406 4.703-8.094-19.199-12.418-25.41v-3.012l-3.386-3.387v-7.906l-3.2-11.297-14.304-92.23 3.386-28.801-1.691-55.719-11.102-12.797-16-11.106-8.089-4.707-15.997-17.508-6.21-1.6914-17.5-3.3906-9.786 3.3906-28.418 12.609-3.386 4.8946v14.496l8.09 12.422 7.906 6.5899 28.605 4.7031 12.797 14.496 7.902 70.019-1.503 27.106-6.399 47.812-9.598 28.613-22.207 35.008-19.007 14.309-19.196 8.094v-8.094l1.508-1.508 3.195-9.41-1.503-14.305-22.208-40.094-3.386-9.414-9.41-22.398-25.594-70.211-6.395-15.812-3.011-11.106-9.789-31.812v-11.293l-6.207-7.9063-8.094-8.0937-33.496-11.106-31.805 4.8946-15.996 1.5078-9.4102 12.797 3.1992 15.812 9.5977 11.293 6.2109 6.4024 20.699 6.3984 3.1992 3.0117h6.3984l11.106 11.293 9.5976 19.012 20.7 68.52 8.094 47.808 6.207 25.41-4.704 51.203-3.011 4.704-21.074 6.402-12.422 6.398-27.289 32-14.301 7.907-23.711 39.714-11.293 50.825-3.1992 39.906 3.1992 23.715v44.801l3.0117 49.316 6.5859 17.504 7.9063 43.297 14.301 49.316 4.7032 12.609-1.5039 43.106-4.7032 9.6021 1.5039 46.117 9.7852 24.093 7.7148 10.918 4.7071 20.891 5.082-1.504 33.309-43.105"/> <path d="m95.98 805.51v-3.199l6.5855-4.895 6.211 6.586-15.808 29.93-4.7071 12.8-14.488 28.801 19.195-23.719 19.004-27.293 12.797-22.21 19.195 4.703 6.398-3.012 28.606-1.691 30.297-8.094 6.589-4.707h6.208l27.101 22.211 22.207 12.8 15.996 3.2-38.203-39.719-4.894-9.598-3.2 6.211-3.011 3.387h-4.704l-3.386-6.586 12.797-30.305 27.097-33.508 4.707-20.515h1.504v-14.496h-1.504v3.39l-4.707 4.707h-25.593l-17.5-12.8-7.907-23.719v-19.387l19.196-47.625 11.105-14.305-19.195 6.211-7.906-1.503-3.2-4.708v-14.304l3.2-4.707 3.199-3.574v-6.211h-11.289l-30.11 17.504-8.093 11.292-12.797 7.907-12.61 12.801-23.898 6.21h-12.985v1.504l-14.113 5.082-3.3867-3.199-7.7188 3.199-1.6914 6.215-8.0937 1.504-1.5039 3.199-7.9063 4.895v4.707l-6.3984 6.398-1.6914-1.691v17.504l-3.0118 5.082h-4.7031l-1.6953 9.414-6.3984 3.199v25.598l-6.3985 4.707 1.6953 19.012 12.797 36.894-3.1992 39.715-4.8945 9.6021v30.117l6.3984 27.293 12.609 19.011 6.5859-19.011 25.219-54.211"/> <path d="m229.59 680.15 6.402 15.059 19.192 9.602 13.175 1.316 5.645-6.59 0.566-2.445h1.504v-14.496h-1.504v3.39l-4.707 4.707h-25.593l-14.68-10.543"/> <path d="m159.02 698.78-12.046 8.469-15.618 1.129-22.773 3.765h-13.359l-1.1289-12.046 10.914-18.071 11.855-9.601 15.621-13.176 12.043-2.445 14.492 41.976"/> <path d="m53.07 754.31c2.2578 0.18701 6.3985 0.94098 7.3399 0.94098v1.316l9.5976 4.707v4.895l2.4453 1.129c0 2.445 3.5782 3.574 3.5782 4.894h2.4453l1.1289 2.446 1.3164 1.129h1.1328v1.128l1.3164 1.321c1.1289 0 2.2578 1.129 2.2578 2.445 1.3164 0 2.4453 1.129 3.7617 1.129l1.1289 1.129c0 1.32 6.0235 8.473 7.1524 8.473v3.574h1.3164v5.273l-1.1289 0.75h-0.1875s0 0.19196-0.1875 0.19196l-1.5039 1.129v1.691c-0.9414 2.07-1.6953 4.332-2.4492 6.777l-22.77 48.942-6.5859 19.011-12.609-19.011-6.3984-27.293v-30.117l4.8945-9.602 3.0078-38.398"/> <path d="m86.379 780.66c-0.1875 6.024-5.457 12.047-7.3359 17.316-2.4492 6.59 1.3164 19.766-5.2696 24.094-1.8828 0.56702-3.7656 3.012-4.3281 4.141h-0.5664c-4.8906 6.027-2.4453 16.941-7.1523 21.648-1.3164 0-2.4453-1.129-3.0078-1.695 0-1.316-1.3204-4.891-1.3204-6.773-4.1367-16.192-0.5625-38.403 4.8946-53.461 1.6953-4.141 4.7031-13.176 4.7031-18.071 0 0 1.8828-2.82 1.8828-3.574 0.375 0 0.7539 0.18799 1.1289 0.18799v1.695l2.4453 1.129c0 2.445 3.5782 3.574 3.5782 4.894h2.4453l1.1289 2.446 1.3164 1.129h1.1328v1.128l1.3164 1.321c1.1289 0 2.2578 1.129 2.2578 2.445h0.75"/> <path d="m73.773 839.02-4.707-8.094v-1.692l7.9063-3.015 4.8906-11.293-1.6914-4.703h-4.7071l-1.6914 7.902-9.5976 4.895v9.414l1.8828 6.586-8.0938 6.211 4.7032 9.789 1.5078-1.692 9.5976-14.308"/> <path d="m296.77 778.41-12.605-23.906-17.504-14.305-17.5 20.703 6.399 17.508 14.3 19.012 30.297 24.094 6.211 1.504h4.707l-14.305-44.61"/> <path d="m261.77 705.18-19.007-8.094-11.102-9.41h-1.695l6.398 9.41 15.996 11.105 7.903 3.2 1.507-4.707v-1.504"/> <path d="m161.47 700.1 9.597-12.422v-5.086l4.704-4.703v-14.305l3.199-4.707v-6.211l-4.703-3.578-14.493 5.082h-12.796l-15.618 10.918-15.996 22.59-9.597 7.715 1.504 4.707h9.785l20.515 3.386 15.993-3.386h7.906"/> <path d="m164.86 681.09 1.504-16h-19.382l-12.418 11.293v4.707l-8.094 8.094 4.894 4.707 25.403-3.2 8.093-9.601"/> <path d="m34.066 671.68 3.1992-14.309 3.1992-3.199 4.7032-16 6.3984-1.504 1.6953-12.801 7.7149-6.59 1.6914-16 4.8945-4.703h10.914l1.6953 1.692 6.3984-6.399 1.6914 1.696h4.7071l8.0902-8.094 12.421 3.386h12.985l14.301-9.789 17.504-20.515 8.089-4.707 12.61-16 12.797-8.094 8.093-7.906h6.207l11.293-3.387h6.211l9.785 8.094 6.211 9.601 14.301 7.907 9.41 12.796v14.497l-7.714 9.41v17.504l12.796-3.2 6.211-4.703 9.598-12.8 19.191 4.703 3.012 3.203 39.899 9.597h8.089l31.805-1.503 20.699-3.2 38.203 3.2 35.192-12.801 15.621-7.907 40.082 9.411 3.199 3.203 12.797 1.691 22.207 1.695h23.899l4.707-3.386h9.4059l20.89-7.906 22.207-17.508 22.204-12.797 15.808-12.801 6.586 8.094-4.891 7.7191-9.41 3.574-3.199 3.011 19.008 12.801 9.41 4.707 14.488 6.399 27.102 3.011 63.793-4.707 25.406-4.703 57.399-12.8 11.101-4.708 27.098-4.894 6.398-3.199 15.809-1.504 5.082-4.707 31.805-4.707 6.21-5.082 30.48-4.703 15.81-4.707 25.41-1.508 20.89-8.094 70-9.41 6.4-3.387 43.1 1.504 36.5 12.801 23.9 14.492-3.2-30.305-26.91-42.73-30.29-30.305 4.7001 9.414-3.2001 3.387h-17.5l-1.5-1.695-3.2 7.906-8.1 3.199h-6.2101l-9.7799-11.105v-4.895l3.2-3.199 6.58 4.707 3.01-6.211h9.41l9.79 3.199 1.5-14.492-27.09-19.012-46.11-23.718-30.3-6.59h-9.6l-28.6-9.41-98.8 1.507-54.387 22.211-42.715 12.797-20.703 3.203-40.082 11.293-47.801 33.317-14.301 9.41-10.918 14.308-15.996 35.012-1.504 1.504-5.082-4.707 14.492-35.012v-12.609l3.012-47.813 3.387-46.117 15.996-47.808 26.91-35.012 36.508-30.305 27.289-12.801 8.09-12.8 6.211-47.809 9.41-28.613 14.488-55.906-3.199-12.422-9.406-19.387-20.891-4.707v11.106l1.504 1.6953v4.7031l-1.504 1.5078h-3.199l-9.41-12.613v-6.3984l-11.102-1.6953 4.703 12.801-3.199 3.1992h-4.703l-12.797-19.012h-1.695l-3.012 3.0117v11.297l10.918 9.4101 20.887 6.586 4.707 9.414-1.508 19.011-25.594 65.317-20.699 32-14.305 11.293-49.492 12.801-31.805 6.21-19.195 8.094-33.308 31.621-17.5 12.801-47.801 49.508-25.215 39.902-35.379 33.508-10.918 6.211h-3.199l-1.879-1.508v-3.199l19.383-15.813 38.203-44.796 3.199-6.211-28.793-3.203-28.605-8.094-47.801-17.504-47.801-6.211-12.797 3.012h-11.289l-17.504 6.398-15.804 15.813-33.5 63.808-4.704 12.801-1.695 1.695h-3.012l-3.199-3.199 6.211-20.894 8.281-16 4.707-4.708v-4.703l25.215-44.613 12.797-12.801-4.703-16-14.305-28.609-9.597-55.906-3.2-7.715v-8.094l-4.703-35.203 1.504-44.422-3.008-52.703-40.086-28.613v-1.5039l-4.703-4.8946-1.507 11.106h-1.692l-4.707 4.707-8.09-17.508h-6.211l-1.508 4.707 4.708 3.3868-1.696 4.707-3.012 3.1992-11.289-11.293-1.507 1.8829-1.692 1.5039 3.199 9.414v5.0821l-1.507 1.5039h-4.704l-9.785-14.305v12.801l6.399 9.4101 11.101 4.707 15.996-1.6953 6.211 1.6953 3.387 4.8946 6.399 7.9023 9.597 16v28.613l4.707 33.504-1.508 28.801-6.586 42.918v14.304l-14.113 35.012-22.394 32-17.504 11.106-1.692-1.508-23.711 16-19.382 3.012-17.504 17.507-7.903 14.493-30.3 49.316-4.704 16-12.796 10.918-4.704 8.094-8.0933 3.199h-6.211l-6.3984-6.211-17.688 34.824v3.199l-6.211 6.211v-16l19.008-39.527 4.8906-1.508 11.106 7.719 11.101-14.305h4.707l6.586-9.414 3.2-16 17.5-20.515 23.71-43.293 1.696-1.508h1.504l-6.211-3.199v1.695l-28.793 3.012-25.403 6.586-17.504 10.917-15.996 22.59-14.301 9.41-4.7031 1.508-19.387 32-6.207 8.094-9.7852 52.328v12.797l-3.0117 12.613 3.0117 22.399 1.8789 96.941 15.996 67.199h1.5078v-14.304"/> <path d="m710.41 495.12-2.445-61.742-2.445-50.445 4.89-40.848 24.09-57.785 26.344-33.695 33.687-23.907 36.133-19.386 15.809-1.129-1.508 11.293-8.09 12.8-27.289 12.801-36.508 30.305-26.91 35.012-15.996 47.808-3.387 46.117-3.012 47.813v12.609l-13.363 32.379"/> <path d="m257.07 671.68-11.289-11.297-9.41-1.504-1.508-1.508h-3.195l1.691 7.719 3.012 5.082 14.488 9.41h7.719l-1.508-7.902"/> <path d="m266.66 649.09-9.598-15.813-3.199-12.609-6.211-11.293v-12.801h-1.879l-15.808 38.211 1.695 11.293 19.191 3.012 12.422 11.293 9.786 16v-9.598l-6.399-17.695"/> <path d="m210.77 603.16-7.902 3.199-12.797 33.321 1.692 3.199 19.007-35.012v-4.707"/> <path d="m211.34 539.54 13.176-0.941-0.942-7.34h-19.007l-31.993 24.094-19.007 20.703v3.011l25.972-19.574 19.195-14.496 12.606-5.457"/> <path d="m247.66 564.76h1.508l3.199-3.199-3.199-9.6021-8.094-4.703-1.504-1.6949h-3.199v8.2809l-8.094 7.7191 1.696 6.3979 6.398 1.695v-1.695l11.289-3.199"/> <path d="m1197.1 493.05v-8.094l-12.8-4.707-1.7-1.508 1.7-1.504h3.01l-1.51-11.293 3.2001-3.203v-4.515l-7.9 1.504-9.6 1.507-1.6901 1.504 3.2001 8.098-10.92 1.691-1.6899 1.508v3.199l14.11 6.211h9.7899l3.01 3.387v1.508l-19.01 3.199-9.59-1.504v6.211l33.3-3.199h5.09"/> <path d="m575.67 313.09v-25.223l1.508-11.293 15.996-32 19.004-11.105v-11.106l-17.5-39.906-15.809-42.914-22.203-59.106-9.41-9.6016-20.891-3.1992h-12.609l-6.586-1.5078h-4.703l11.289 8.0938v3.2031l-5.078 4.7031-10.918-4.7031-11.289-9.7891-6.211 3.1992 12.609 12.801-4.707 4.8946-11.289-3.3907-7.906-9.4101h-1.504v6.3984l10.914 9.6016 27.289 7.9062h14.301l9.785 14.304v4.707l4.707 3.387 10.914 30.117v8.094l3.387 3.012 14.301 68.515-3.387 6.59-19.004 6.211-22.207 4.707-8.094 8.094h-4.703l-15.996 11.105-25.406 36.895 41.402 15.812 15.996 3.2 31.805 4.703 12.793-4.703 9.41-11.297"/> <path d="m532.76 326.08v-44.234l28.793-43.106 43.66-32.187 6.961 15.812v11.106l-19.004 11.105-15.996 32-1.508 11.293v25.223l-9.41 11.297-12.793 4.703-20.703-3.012"/> <path d="m167.87 317.8 6.399-3.012 9.597-1.695 12.61-25.223-3.2-16-6.21-6.586-14.493-28.801-12.797-39.714-9.41-20.52-23.898-65.504-11.102-31.812v-12.801l-17.691-16-1.6914 1.5078-7.7188-3.0117v1.5039l-1.6914 1.5078-3.0117-4.707h-8.0938l3.0118 9.7891v6.2109l-1.5039 1.5078h-4.7071l-8.0898-12.801-6.211-3.0117-7.9023 1.5039 9.4063 16v1.5078l-3.1993 3.1992-9.5976-4.707-1.5039 1.5078-7.9024-14.305h-6.5898v1.6914l3.3906 3.2032-3.3906 4.7031 5.082 4.707v5.0821l6.211 4.707 1.5039-1.6953 1.6953 1.6953v3.0117l33.309 11.293 9.7851 10.918 6.211 9.789 22.582 76.61 10.914 57.222 6.59 30.305-6.59 42.918 30.301-4.707 9.597 3.012"/> <path d="m149.05 692.76 3.766-3.203 1.503-6.965-2.257-7.903-3.954-4.519-6.585-2.824-8.844 8.472v4.141l-6.211 9.223 4.894 4.707h9.407l8.281-1.129"/> <path d="m250.1 680.72 1.129-4.52-0.566-3.765-0.75-7.903-4.141-4.144-9.41-1.504-1.508-1.508h-3.195l1.691 7.719 1.504 4.14 2.071 2.258 13.175 9.227"/> <path d="m218.86 565.14-0.937 1.504h-1.321l-1.128 3.5779h-1.129l-2.446 4.89h-1.316s0 2.262-2.258 2.262l-1.32 1.316-1.129 1.129c0 1.129-1.129 2.446-2.445 2.446 0 2.449-4.704 4.707-6.024 6.027v1.129c-1.129 0-3.574 1.316-3.574 3.574-1.129 0-4.703 2.449-4.703 3.578l-1.32 1.317c-1.129 0-7.149 3.578-7.149 4.707-2.449 0-3.578 1.316-6.023 1.316 0 4.707-36.133 9.602-40.836 12.047v1.129c-1.317 0-4.895 1.129-6.024 1.129-4.89 10.918-36.129 13.367-48.176 13.367 0-2.262-8.8438-4.332-10.539-7.531v-1.883l7.9063-4.895 1.5039-3.199 8.0937-1.504 1.6914-6.215 7.7188-3.199 3.3867 3.199 14.113-5.082v-1.504h12.985l23.898-6.21 12.61-12.801 12.797-7.907 8.093-11.292 30.11-17.504h11.289v6.2111l-3.199 3.574-3.2 4.707v6.59"/> <path d="m51.754 635.73c-1.6914-5.082-9.7851-13.176-14.113-17.508v-14.305h-4.8945c-9.5977-14.492 9.5977-52.894 0-67.387h-4.7031c-8.0938-12.047-12.422-27.672-14.301-45.363l0.9414-4.332v-12.797l9.7852-52.328 6.207-8.094 19.387-32 4.7031-1.508 14.301-9.41 15.996-22.59 17.504-10.917 25.403-6.586 28.793-3.012v-1.695l6.211 3.199h-1.504l-1.696 1.508-23.71 43.293-17.5 20.515-3.2 16-6.586 9.414h-4.707l-11.101 14.305-11.106-7.719-4.8906 1.508-19.008 39.527v16l6.211-6.211v-3.199l17.688-34.824 6.3984 6.211h6.211l8.0933-3.199 4.704-8.094 12.796-10.918 4.704-16 27.101-44.047c-2.637 15.059-9.41 40.848-13.363 48.566h-4.703v14.493h-4.895c0 4.707-4.703 19.199-4.703 23.906h-4.894c-9.598 14.305-28.794 96-19.196 115.2h4.895l5.457 22.586-9.41-2.445-8.0902 8.094h-4.7071l-1.6914-1.696-6.3984 6.399-1.6953-1.692h-10.914l-4.8945 4.703-1.6914 16-7.7149 6.59-1.5078 11.86zm115.73-296.66v0.56699h-0.562l0.562-0.567zm-235.23 595c-0.1914 0.19098-0.5664 0.19098-0.7539 0.19098l-0.1875 0.188 0.9414-0.379zm115.92-295.52-2.0703 2.071 1.6953-0.75 0.375-1.321"/> <path d="m1150 506.41c1.5-1.316 2.63-2.445 2.63-3.578 9.6 0 24.09-4.703 33.69-4.703-4.8899-4.895-14.49-9.602-19.2-14.496h-9.59l-4.9-4.703v-9.602h38.39l-14.3-14.305s2.0701-3.199 3.2001-6.402h5.83l8.1-3.199 3.2001-7.906 1.5 1.695h17.5l3.2-3.387-4.7-9.414 30.29 30.305 26.91 42.73 3.2 30.305-23.9-14.492-36.5-12.801-43.1-1.504-6.3999 3.387-15.05 2.07zm38.77-78.492h3.1899l9.79 3.199 1.5-14.492c-7.52 2.633-18.63 4.703-21.82 4.703 2.82 0 5.45 3.012 7.34 6.59"/> <path d="m120.25 206.18c0.941-0.754 2.258-1.129 3.953-1.129 0-9.602-4.894-19.199-4.894-24.094h9.597v-9.602l-9.597-9.597v-19.199l9.597-14.496h3.766l-6.211-17.317-11.102-31.812v-12.801l-17.691-16-1.6914 1.5078-7.7188-3.0117v1.5039l-1.6914 1.5078-3.0117-4.707h-8.0938l3.0118 9.7891v6.2109l-1.5039 1.5078h-4.7071l-8.0898-12.801-6.211-3.0117-7.9023 1.5039 9.4063 16v1.5078l-3.1993 3.1992-9.5976-4.707-1.5039 1.5078-7.9024-14.305h-6.5898v1.6914l3.3906 3.2032-3.3906 4.7031 5.082 4.707v5.0821l6.211 4.707 1.5039-1.6953 1.6953 1.6953v3.0117l33.309 11.293 9.7851 10.918 6.211 9.789 22.582 76.61 3.199 17.129"/> <path d="m538.97 244.96c12.23 1.504 24.465 3.387 27.476 3.387 0-4.895 19.196-19.387 23.899-19.387 0-4.707-4.703-9.602-4.703-14.309h22.957l-13.926-32.187-15.809-42.914-22.203-59.106-9.41-9.6016-20.891-3.1992h-12.609l-6.586-1.5078h-4.703l11.289 8.0938v3.2031l-5.078 4.7031-10.918-4.7031-11.289-9.7891-6.211 3.1992 12.609 12.801-4.707 4.8946-11.289-3.3907-7.906-9.4101h-1.504v6.3984l10.914 9.6016 27.289 7.9062h14.301l9.785 14.304v4.707l4.707 3.387 10.914 30.117v8.094l3.387 3.012 14.301 68.515-3.387 6.59-19.004 6.211-1.695 0.379"/> <path d="m277.58 241.19c3.199-8.847 12.422-22.402 12.422-28.988 4.703 0 12.043-31.246 12.043-26.351 3.391-18.262-3.762-23.719 9.598-26.543v-16.75c2.636 0 5.836-1.696 9.597-4.52l1.129-32-3.008-52.703-40.086-28.613v-1.5039l-4.703-4.8946-1.507 11.106h-1.692l-4.707 4.707-8.09-17.508h-6.211l-1.508 4.707 4.708 3.3868-1.696 4.707-3.012 3.1992-11.289-11.293-1.507 1.8829-1.692 1.5039 3.199 9.414v5.0821l-1.507 1.5039h-4.704l-9.785-14.305v12.801l6.399 9.4101 11.101 4.707 15.996-1.6953 6.211 1.6953 3.387 4.8946 6.399 7.9023 9.597 16v28.613l4.707 33.504-1.508 28.801-8.281 68.14"/> <path d="m686.32 233.85 76.969-4.895-4.895 4.895v9.597c9.786-4.707 33.688-19.199 48.176-19.199l-9.597 9.602 14.304-4.895v-4.707s9.598 0 9.598-9.602l4.891-4.89h14.492c0 3.387 0.56201 7.902 1.316 13.176l3.387-5.461 6.211-47.809 9.41-28.613 14.488-55.906-3.199-12.422-9.406-19.387-20.891-4.707v11.106l1.504 1.6953v4.7031l-1.504 1.5078h-3.199l-9.41-12.613v-6.3984l-11.102-1.6953 4.703 12.801-3.199 3.1992h-4.703l-12.797-19.012h-1.695l-3.012 3.0117v11.297l10.918 9.4101 20.887 6.586 4.707 9.414-1.508 19.011-25.594 65.317-20.699 32-14.305 11.293-49.492 12.801-31.805 6.21-5.644 2.446c0.375 0.754 0.94098 1.133 1.695 1.133"/> <path d="m95.227 772.2 24.086 27.668 48.175 1.129 41.969-12.047 21.641-26.351 14.492-26.539 9.594-18.071-28.789-11.859-27.665-3.766-26.535 12.047-28.793 28.989-38.39 1.128-9.7854 27.672"/> <path d="m109.15 775.02c6.961 7.906 13.739 15.812 20.512 23.531 13.551 0.375 27.289 0.75397 40.836 1.129 11.855-3.387 23.902-6.778 35.758-10.352 6.207-7.344 12.23-14.871 18.441-22.402 3.953-7.527 8.094-15.059 12.231-22.399 2.636-5.269 5.461-10.351 8.093-15.433-8.093-3.391-16.371-6.777-24.464-10.164-7.903-1.129-15.621-2.071-23.524-3.012-7.527 3.387-14.867 6.774-22.394 10.164-8.282 8.094-16.371 16.375-24.653 24.469-10.726 0.375-21.64 0.75397-32.554 1.129-2.825 7.7191-5.461 15.625-8.282 23.34"/> <path d="m123.08 778.03c5.645 6.403 11.289 12.989 16.938 19.391 11.101 0.18701 22.394 0.56201 33.496 0.75 9.972-2.82 19.761-5.457 29.547-8.281 5.078-6.211 10.16-12.422 15.054-18.633 3.387-6.024 6.774-12.234 10.16-18.449 2.258-4.141 4.52-8.469 6.778-12.61-6.778-2.824-13.551-5.648-20.137-8.472-6.586-0.75-12.984-1.692-19.383-2.446-6.211 2.825-12.422 5.649-18.633 8.469-6.585 6.59-13.359 13.367-20.136 20.141-9.032 0.19104-17.875 0.56604-26.91 0.75403-2.258 6.589-4.516 12.988-6.774 19.386"/> <path d="m137 781.04c4.516 5.082 8.844 10.164 13.172 15.246 8.847 0.18805 17.691 0.375 26.535 0.56305 7.715-2.258 15.43-4.329 23.148-6.586 3.95-4.895 7.903-9.789 11.856-14.496 2.633-4.895 5.269-9.786 7.902-14.68 1.883-3.203 3.578-6.59 5.27-9.789-5.27-2.258-10.539-4.52-15.809-6.59-5.078-0.75-10.16-1.316-15.242-2.07-4.895 2.261-9.598 4.332-14.488 6.589-5.27 5.27-10.539 10.54-15.809 15.813-7.152 0.375-14.117 0.56201-21.266 0.75-1.695 5.082-3.386 10.164-5.269 15.25"/> <path d="m150.93 783.86c3.199 3.766 6.398 7.532 9.597 11.106 6.399 0.19098 12.797 0.37897 19.196 0.56598 5.644-1.695 11.289-3.199 16.937-4.894 2.82-3.575 5.645-6.965 8.656-10.539 1.883-3.579 3.762-6.965 5.645-10.543 1.316-2.446 2.637-4.895 3.953-7.34-3.953-1.508-7.715-3.199-11.48-4.707-3.762-0.56299-7.528-0.94196-11.102-1.504-3.578 1.691-7.152 3.199-10.539 4.89-3.953 3.766-7.715 7.719-11.668 11.485-5.082 0.18701-10.164 0.375-15.242 0.56201-1.32 3.578-2.637 7.344-3.953 10.918"/> <path d="m164.86 786.88 6.024 6.965 12.043 0.187 10.539-3.011 5.269-6.586 3.762-6.59 2.258-4.5161-7.148-3.011-6.965-0.942-6.586 3.012-7.153 7.34-9.597 0.187-2.446 6.965"/> <path d="m233.54 703.68-14.488-22.961-2.45-38.402 28.985-64.938-21.645 2.445-24.086 48.188-14.492 38.398-11.855 33.696 26.347-3.579 33.684 7.153"/> <path d="m230.34 695.4c-3.949-6.399-8.09-12.989-12.231-19.387-0.754-10.918-1.316-21.836-2.07-32.754 8.281-18.445 16.371-36.703 24.652-55.152-6.211 0.75305-12.422 1.32-18.441 2.07-6.777 13.555-13.738 27.297-20.516 40.848-3.949 10.918-8.09 21.835-12.23 32.753-3.387 9.411-6.774 19.012-10.16 28.61 7.527-1.129 14.863-2.07 22.39-3.199 9.598 2.07 19.196 4.14 28.606 6.211"/> <path d="m227.33 687.11c-3.387-5.269-6.773-10.73-10.16-16-0.567-9.035-1.129-17.883-1.695-26.918 6.777-15.058 13.55-30.304 20.136-45.363-4.89 0.56604-9.972 1.129-15.054 1.695-5.645 11.106-11.293 22.399-16.938 33.504-3.199 9.035-6.586 18.071-9.973 26.918-2.824 7.906-5.644 15.813-8.468 23.719 6.211-0.94098 12.422-1.695 18.441-2.637 7.906 1.696 15.809 3.387 23.711 5.082"/> <path d="m224.13 678.83c-2.633-4.141-5.27-8.285-7.903-12.613-0.375-6.965-0.94099-14.117-1.316-21.082 5.27-11.86 10.539-23.715 15.809-35.762-3.953 0.56299-7.907 0.93799-11.86 1.316-4.328 8.848-8.843 17.692-13.172 26.539-2.632 6.965-5.269 14.118-7.902 21.083-2.258 6.214-4.516 12.425-6.777 18.636 4.894-0.75403 9.789-1.32 14.679-2.07 6.024 1.316 12.235 2.633 18.442 3.953"/> <path d="m220.93 670.55c-1.879-3.012-3.762-6.02-5.645-9.031-0.375-5.274-0.75401-10.356-0.94101-15.438 3.765-8.66 7.715-17.316 11.48-25.976-2.824 0.37799-5.832 0.56604-8.656 0.94104-3.199 6.398-6.399 12.801-9.598 19.199-1.883 5.274-3.953 10.356-5.836 15.438-1.504 4.515-3.199 9.035-4.703 13.55 3.387-0.56195 6.965-1.128 10.539-1.503 4.516 0.94104 9.031 1.882 13.36 2.82"/> <path d="m217.93 662.27-3.578-5.645-0.75-9.601 7.336-16.188-5.457 0.563-6.02 12.046-3.578 9.602-3.008 8.473 6.586-0.942 8.469 1.692"/> <path d="m249.16 469.33-72.078 43.106 23.902-119.9 62.477-24.093 52.883-67.2 33.683 14.305-52.879 91.48-47.988 62.305"/> <path d="m253.3 460.86c-20.512 12.235-41.028 24.469-61.352 36.704 6.777-34.071 13.551-67.954 20.324-102.02 17.879-6.777 35.571-13.555 53.258-20.332 14.867-19.012 29.922-38.211 44.977-57.223 9.41 4.141 19.008 8.094 28.605 12.239-15.054 25.972-30.109 51.761-44.976 77.738-13.739 17.695-27.289 35.387-40.836 52.894"/> <path d="m257.25 452.57c-16.746 9.977-33.684 19.953-50.434 30.117 5.645-27.855 11.293-55.902 16.75-83.949 14.68-5.648 29.168-11.105 43.848-16.754 12.23-15.812 24.652-31.433 37.074-47.246 7.715 3.387 15.617 6.778 23.524 10.164-12.422 21.27-24.657 42.731-37.075 64-11.293 14.492-22.394 29.176-33.687 43.668"/> <path d="m261.4 444.1c-13.172 8.094-26.536 15.813-39.707 23.719 4.515-21.836 8.843-43.859 13.171-65.883 11.481-4.519 22.961-8.847 34.442-13.363 9.785-12.238 19.383-24.66 29.168-36.894 6.023 2.636 12.23 5.269 18.441 7.906-9.785 16.75-19.383 33.504-29.168 50.258-8.656 11.48-17.5 22.965-26.347 34.257"/> <path d="m265.54 435.82c-9.597 5.645-19.195 11.481-28.98 17.317 3.199-16 6.398-32.188 9.785-48.188 8.281-3.199 16.562-6.398 24.84-9.601 7.152-8.844 14.117-17.879 21.265-26.914 4.52 1.878 8.848 3.953 13.364 5.832-6.965 12.238-14.114 24.285-21.079 36.519-6.398 8.281-12.796 16.75-19.195 25.035"/> <path d="m269.49 427.35-17.879 10.918 6.024-30.118 15.617-6.023 13.176-16.754 8.277 3.578-13.172 22.777-12.043 15.622"/> <path d="m354.93 589.42-81.676-9.602 67.184-19.199 67.371-14.492 72.078-14.309h81.672l52.691-52.89 38.391-57.602 33.687-43.293 19.196 76.988-38.391 62.305-67.184 62.492-91.269-4.707-153.75 14.309"/> <path d="m389.74 585.09c-26.722-2.445-53.445-4.895-79.98-7.34 23.527-6.398 47.238-12.609 70.762-19.012 19.57-4.14 38.953-8.281 58.335-12.609 20.891-4.145 41.778-8.285 62.668-12.426 23.711-1.316 47.422-2.637 71.325-3.765 15.054-14.118 30.109-28.047 45.164-41.973 11.101-16.754 22.207-33.129 33.308-49.883 11.102-13.742 22.207-27.48 33.309-41.223 5.269 23.34 10.539 46.68 15.621 69.832-11.293 18.45-22.773 36.895-34.25 55.344-19.762 18.07-39.332 36.141-59.094 54.211-26.91-0.19098-54.195-0.37903-81.484-0.75403-45.164 3.199-90.516 6.399-135.68 9.598"/> <path d="m424.56 580.76c-26.16-1.696-52.317-3.387-78.285-5.082 24.839-6.211 49.492-12.614 74.332-18.825 16.562-3.574 32.933-7.152 49.496-10.539 17.687-3.578 35.379-7.152 52.879-10.543 20.324-2.632 40.648-5.269 60.972-7.714 12.61-10.356 25.219-20.707 37.824-31.059 9.411-14.121 18.821-28.234 28.231-41.977 10.914-13.175 21.828-26.351 32.742-39.339 4.141 20.89 8.281 41.972 12.234 62.679-9.976 16.188-20.136 32.188-30.109 48.188-16.937 15.433-33.875 30.871-50.812 46.304-23.899 0.94196-47.801 2.071-71.7 3.2-39.332 1.5081-78.664 3.199-117.8 4.707"/> <path d="m459.37 576.43c-25.594-0.94202-51-1.883-76.594-2.825 25.969-6.211 51.938-12.421 77.911-18.636 13.546-3.012 27.097-5.832 40.648-8.657 14.301-2.824 28.793-5.836 43.281-8.66 16.938-3.765 33.688-7.718 50.625-11.48 9.973-6.778 20.133-13.367 30.11-20.141 7.714-11.484 15.429-22.965 23.144-34.449 10.918-12.234 21.645-24.844 32.559-37.27 2.82 18.637 5.832 37.27 8.656 55.907-8.656 13.742-17.313 27.293-25.969 41.035-14.304 12.609-28.418 25.41-42.719 38.023-20.703 2.446-41.214 4.891-61.914 7.153h-99.738"/> <path d="m494.18 572.1c-25.028-0.18799-49.871-0.375-74.899-0.56299 27.285-6.211 54.387-12.426 81.485-18.449l31.617-6.774c11.289-2.257 22.582-4.519 33.871-6.777 13.363-5.082 26.722-10.164 40.086-15.246 7.527-3.012 15.242-6.211 22.769-9.223 6.024-8.847 12.047-17.882 18.067-26.73 10.726-11.86 21.453-23.527 32.179-35.199 1.696 16.187 3.387 32.562 5.082 48.941-7.339 11.293-14.492 22.398-21.828 33.691-11.48 9.977-22.961 19.954-34.441 29.93-17.5 3.766-34.813 7.531-52.317 11.293-27.285-1.691-54.382-3.199-81.671-4.894"/> <path d="m529 567.77-73.207 1.696 85.062-18.449 22.77-4.704 24.09-4.707 29.73-19.199 15.434 1.6949 12.984-19.011 31.614-33.508 1.695 42.164-17.688 26.73-26.347 21.836-42.532 15.247-63.605-9.79"/> <path d="m532.76 426.22-4.891 47.812 72.074-23.906 62.477-96 67.183-91.481-28.792-19.199-96.165 67.387-71.886 115.39"/> <path d="m538.6 419.82c-1.508 13.739-2.825 27.293-4.141 40.844 20.324-6.773 40.836-13.551 61.348-20.328 17.504-27.293 35.191-54.399 52.883-81.692 19.003-25.976 38.011-51.765 57.207-77.742-8.282-5.457-16.372-10.918-24.653-16.375-27.097 19.199-54.387 38.211-81.484 57.223-20.324 32.754-40.836 65.504-61.16 98.07"/> <path d="m544.24 413.61c-1.129 11.293-2.258 22.399-3.387 33.692 16.938-5.649 33.684-11.293 50.622-16.754 14.3-22.586 28.793-44.985 43.472-67.387 15.617-21.269 31.426-42.539 47.047-63.996-6.586-4.332-13.363-8.848-20.137-13.367-22.394 15.625-44.789 31.437-67.183 47.058-16.75 26.918-33.496 53.836-50.434 80.754"/> <path d="m550.07 407.4c-0.94098 8.848-1.879 17.696-2.633 26.543 13.172-4.519 26.344-8.847 39.707-13.363 11.293-17.508 22.582-35.203 34.063-52.894 12.418-16.754 24.652-33.508 37.074-50.258-5.269-3.391-10.539-6.965-15.808-10.543-17.692 12.426-35.379 24.66-52.696 37.082-13.359 21.082-26.531 42.351-39.707 63.433"/> <path d="m555.91 401.19c-0.75403 6.402-1.32 12.8-2.07 19.199 9.598-3.199 19.195-6.399 28.98-9.598 8.282-12.801 16.559-25.601 24.653-38.398 9.031-12.239 18.066-24.473 26.91-36.707-3.762-2.446-7.528-5.082-11.481-7.532-12.797 8.848-25.402 17.883-38.199 26.918-9.598 15.246-19.195 30.684-28.793 46.118"/> <path d="m561.56 394.98-1.129 12.046 18.066-6.023 15.617-24.094 16.563-22.777-7.152-4.895-23.899 16.754-18.066 28.989"/> <path d="m455.79 313.09 95.035 30.117-32.555 30.117-43.285 28.801-86.379-9.598-81.859 10.727 56.453-88.844 45.731-10.918 46.859 9.598"/> <path d="m460.12 314.6c28.981 9.222 57.961 18.636 87.133 27.859-14.867 7.906-29.734 15.621-44.602 23.34-12.23 8.281-24.464 16.375-36.695 24.469-24.465-2.633-49.117-5.457-73.582-8.094-26.535 3.953-53.258 8.094-79.793 12.047 8.281-13.739 16.563-27.668 24.84-41.41 8.848-12.989 17.691-26.165 26.535-39.153 15.055-3.199 30.109-6.398 45.164-9.601 17.125 3.578 34.063 6.964 51 10.543"/> <path d="m464.45 316.1c26.348 8.473 52.692 17.133 79.039 25.602-18.816 5.648-37.636 11.106-56.457 16.754-9.972 6.586-20.133 13.363-30.297 20.141-20.136-2.262-40.273-4.52-60.597-6.778-25.782 4.328-51.75 8.848-77.719 13.176 6.961-12.609 14.113-25.41 21.266-38.211 8.277-11.293 16.746-22.586 25.027-33.883 14.867-2.824 29.922-5.644 44.789-8.468 18.254 3.953 36.695 7.714 54.949 11.667"/> <path d="m468.78 317.43c23.711 7.906 47.426 15.812 71.137 23.715-22.773 3.203-45.543 6.402-68.5 9.789-7.906 5.269-15.809 10.543-23.711 15.812-15.996-1.695-31.805-3.39-47.613-5.269-25.406 4.89-50.621 9.597-76.027 14.492 6.023-11.672 11.855-23.527 17.878-35.199 7.903-9.411 15.618-19.012 23.524-28.614 14.676-2.257 29.543-4.703 44.223-7.152 19.757 4.145 39.332 8.285 59.089 12.426"/> <path d="m473.1 318.93c21.079 7.152 42.157 14.308 63.231 21.461-26.91 0.94101-53.633 2.07-80.543 3.011-5.645 3.953-11.48 7.715-17.313 11.668-11.48-1.316-22.96-2.632-34.625-3.953-24.652 5.274-49.308 10.543-73.96 15.625 4.707-10.543 9.597-21.269 14.304-32 7.34-7.719 14.676-15.433 22.016-23.34 14.492-1.882 29.172-3.953 43.66-5.836 21.078 4.329 42.156 8.848 63.23 13.364"/> <path d="m477.43 320.44 55.328 19.199-92.59-3.578-10.727 7.152-21.64-2.445-72.075 16.941 10.727-28.988 20.512-17.883 43.285-4.895 67.18 14.497"/> <path d="m598.82 214.65-39.707-79.433-16.75-43.293-31.05-12.234 2.445-2.2578v-3.2031l-11.289-8.0938h4.703l6.586 1.5078h12.609l20.891 3.1992 9.41 9.6016 22.203 59.106 15.809 42.914 13.926 32.187h-9.786"/> <path d="m751.25 217.1 48.18-9.789 23.898-38.399 16.938-43.293 9.597-33.695-4.894-19.199-28.414-2.4454 12.418 3.9493 4.707 9.414-1.508 19.011-25.594 65.317-20.699 32-14.305 11.293-20.132 5.082-0.192 0.754"/> <path d="m286.61 159.69 5.832-31.625 2.258-45.739 2.449-21.648-14.304-7.1524-16.938 3.5743 0.754 1.1328 6.399 7.9023 9.597 16v28.613l4.707 33.504-0.754 15.438"/> <path d="m119.31 130.51-16.747-50.45-25.406-15.621 1.3164-1.5078v-6.2109l-3.0118-9.7891h8.0938l3.0117 4.707 1.6914-1.5078v-1.5039l7.7188 3.0117 1.6914-1.5078 17.691 16v12.801l11.102 31.812 6.211 17.317h-3.766l-2.445 3.765-7.152-1.316zm-49.493-69.836h-13.551l-6.207-10.543 7.9023-1.5039 6.211 3.0117 5.6445 9.0352zm-28.418 0h-9.0312l1.6953-2.4453-3.3906-3.2032v-1.6914h6.5898l4.1367 7.3399"/> <path d="m744.1 466.88-7.34 28.797 91.457-33.692 91.273-31.058 103.31-16.754h105.76l64.93 9.601-33.69-31.246-67.18-26.543-129.85 2.45-98.61 26.539-91.269 40.847-28.793 31.059"/> <path d="m780.6 451.44c-2.07 8.282-4.14 16.188-6.21 24.473 25.968-9.602 51.753-19.012 77.722-28.426 25.781-8.847 51.75-17.691 77.531-26.539 29.36-4.894 58.715-9.601 87.892-14.305h89.95c18.44 2.633 36.69 5.457 55.14 8.094-9.6-8.847-19.01-17.695-28.61-26.543-19-7.527-38.2-15.058-57.21-22.586-36.69 0.75-73.58 1.504-110.28 2.071-28.039 7.527-55.89 15.058-83.742 22.586-25.973 11.484-51.754 23.152-77.723 34.636-8.093 8.848-16.371 17.692-24.465 26.539"/> <path d="m817.11 436.01c-1.691 6.777-3.386 13.551-5.082 20.14 21.266-7.718 42.719-15.625 63.985-23.531 21.265-7.34 42.531-14.492 63.984-21.832 24.09-3.953 48.176-7.906 72.27-11.859h73.95c15.24 2.258 30.3 4.515 45.54 6.777-7.9-7.344-15.8-14.496-23.52-21.836-15.81-6.211-31.43-12.422-47.24-18.445-30.29 0.56198-60.4 1.129-90.703 1.691-23.145 6.024-46.106 12.235-69.063 18.449-21.265 9.598-42.531 19.012-63.984 28.61-6.586 7.34-13.363 14.496-20.137 21.836"/> <path d="m853.62 420.58c-1.316 5.27-2.633 10.539-3.949 15.809 16.746-6.211 33.496-12.422 50.246-18.446 16.746-5.836 33.496-11.484 50.246-17.316 19.004-3.012 37.824-6.023 56.836-9.227h58.14c11.86 1.883 23.9 3.579 35.76 5.274-6.21-5.649-12.42-11.484-18.63-17.129-12.23-4.895-24.65-9.789-36.88-14.496-23.91 0.379-47.617 0.754-71.515 1.316-18.066 4.707-36.133 9.602-54.199 14.496-16.75 7.528-33.496 15.059-50.246 22.399-5.27 5.836-10.539 11.484-15.809 17.32"/> <path d="m890.13 404.95c-0.93799 3.953-1.879 7.719-2.82 11.672 12.23-4.52 24.273-9.035 36.507-13.555 12.231-4.14 24.465-8.281 36.508-12.422 13.739-2.261 27.664-4.519 41.406-6.777h42.34c8.6499 1.317 17.31 2.637 25.97 3.766-4.52-4.141-9.04-8.285-13.55-12.426-9.0299-3.574-17.88-7.152-26.91-10.539-17.31 0.18701-34.631 0.56201-51.943 0.94101-13.172 3.575-26.157 6.965-39.328 10.539-12.235 5.461-24.465 10.918-36.512 16.379-3.949 4.141-7.715 8.282-11.668 12.422"/> <path d="m926.64 389.52-1.696 7.156 22.77-8.285 22.961-7.903 25.781-4.144h26.343l16.38 2.262-8.47-7.719-16.94-6.59-32.368 0.566-24.652 6.59-22.773 10.164-7.336 7.903"/> <path d="m703.26 531.82 12.043-21.644 31.238 31.246 76.781 4.707 124.96-12.047 76.969-9.6021-149.05 40.848-64.922 14.492-76.781 2.446-40.836-26.539 9.598-23.907"/> <path d="m710.79 537.28c3.387-6.215 6.774-12.234 10.16-18.449 8.8441 8.848 17.692 17.695 26.535 26.543 21.829 1.504 43.661 2.824 65.489 4.141 35.379-3.387 70.757-6.778 106.14-10.164 21.832-2.825 43.661-5.461 65.493-8.286-42.344 11.672-84.497 23.157-126.65 34.825-18.441 4.14-36.883 8.093-55.324 12.234-21.645 0.75403-43.473 1.32-65.305 2.07-11.476-7.527-23.144-15.054-34.812-22.398 2.824-6.965 5.457-13.738 8.281-20.516"/> <path d="m718.32 542.74c2.821-4.894 5.645-9.976 8.469-15.058 7.336 7.34 14.488 14.496 21.828 21.836 17.879 1.129 35.946 2.257 53.821 3.386 29.171-2.824 58.339-5.644 87.507-8.468 17.879-2.258 35.946-4.52 53.825-6.59-34.817 9.414-69.442 19.011-104.26 28.613-15.242 3.199-30.297 6.586-45.543 9.977-17.875 0.56201-35.754 1.129-53.82 1.691-9.411-6.211-19.008-12.234-28.606-18.445 2.258-5.649 4.52-11.293 6.777-16.942"/> <path d="m725.84 548.39c2.258-3.953 4.515-7.907 6.586-11.86 5.832 5.649 11.48 11.293 17.312 17.129 14.113 0.94202 28.227 1.696 42.344 2.637 22.769-2.262 45.73-4.332 68.687-6.59 14.114-1.883 28.227-3.574 42.344-5.269-27.476 7.527-54.765 14.871-82.051 22.398-11.855 2.637-23.711 5.27-35.757 7.906-13.926 0.56696-28.039 0.94196-42.153 1.317-7.527-4.703-15.054-9.598-22.582-14.492 1.883-4.329 3.574-8.848 5.27-13.176"/> <path d="m733.56 553.84c1.504-2.824 3.199-5.836 4.703-8.656l12.609 12.609c10.164 0.56598 20.512 1.129 30.676 1.883 16.75-1.696 33.308-3.2 50.058-4.895 10.161-1.316 20.512-2.445 30.672-3.765-19.757 5.46-39.707 10.918-59.652 16.378-8.66 1.883-17.316 3.762-25.973 5.645-10.16 0.37903-20.324 0.75403-30.672 0.94104-5.46-3.386-10.917-6.964-16.375-10.539 1.317-3.199 2.637-6.402 3.954-9.601"/> <path d="m741.09 559.49 3.012-5.461 7.715 7.719 19.195 1.316 31.426-3.011 19.195-2.446-37.262 10.164-16.183 3.579-19.383 0.75-10.16-6.774 2.445-5.836"/> <path d="m784.93 493.23-33.688 31.246 50.438 16.942 113.1-9.602 108.02-19.386 117.81-23.907 9.6-50.257-62.48-21.645-175.39 21.645-127.4 54.964"/> <path d="m807.7 497.19c-9.406 9.035-18.816 17.882-28.226 26.917 14.3 4.516 28.793 9.223 43.093 13.739 31.805-3.199 63.797-6.211 95.789-9.41 30.485-5.836 60.973-11.672 91.641-17.508 33.13-7.153 66.44-14.305 99.56-21.645 2.6299-14.304 5.08-28.613 7.71-42.73-17.69-5.832-35.56-11.86-53.25-17.692-49.68 6.774-99.18 13.551-148.67 20.329-35.946 15.812-71.7 32-107.64 48"/> <path d="m830.48 501.14c-7.528 7.527-15.055 15.058-22.774 22.398 11.856 3.578 23.711 7.152 35.57 10.731 26.157-3.012 52.504-6.024 78.661-9.036 25.031-5.269 50.058-10.543 75.086-15.812 27.1-6.399 54.39-12.801 81.68-19.199 1.87-11.86 3.76-23.719 5.64-35.2-14.68-4.707-29.36-9.222-44.04-13.742-40.644 6.211-81.48 12.422-122.13 18.446-29.172 13.929-58.34 27.671-87.695 41.414"/> <path d="m853.43 504.9c-5.832 6.215-11.668 12.239-17.5 18.262 9.406 2.445 18.816 5.082 28.226 7.527 20.324-2.824 40.836-5.8361 61.348-8.847 19.574-4.516 38.957-9.223 58.527-13.93 21.265-5.644 42.345-11.293 63.605-16.75 1.13-9.414 2.45-18.637 3.58-28.047-11.48-3.199-23.15-6.402-34.81-9.601-31.621 5.836-63.426 11.484-95.23 17.129-22.582 11.484-45.164 22.964-67.746 34.257"/> <path d="m876.2 508.86c-3.949 4.708-8.09 9.227-12.043 13.743 6.965 1.507 13.738 3.011 20.699 4.519 14.68-2.824 29.547-5.648 44.227-8.472 14.113-4.141 28.039-8.094 41.965-12.235 15.242-4.894 30.489-9.601 45.539-14.492 0.56995-6.777 1.1299-13.555 1.7-20.332-8.47-2.07-17.13-3.953-25.599-5.836-22.769 5.273-45.726 10.543-68.5 15.813-15.996 9.222-31.992 18.257-47.988 27.292"/> <path d="m898.98 512.81-6.586 9.414 13.172 1.504 27.097-8.469 25.406-10.356 27.664-12.043-0.378-12.988-16.372-1.883-41.777 14.492-28.226 20.329"/> <path d="m258.38 750.17 5.082 5.082c0 2.445 14.492 16.941 14.492 16.941v4.703c4.891 0 0 2.45 4.891 2.45l2.257 7.152h2.45c2.445 2.445 4.89 12.047 7.148 12.047v7.34h2.449c1.317 1.32 1.317 7.531 0.94202 13.929l-28.231-22.398-14.3-19.012-6.399-17.508 0.754-0.75c2.066-0.37799 4.328-2.449 6.398-2.449l2.446-2.4449-1.883-3.578 1.504-1.504"/> <path d="m160.53 327.96c-1.129 0.56601 0.942 2.07-2.636 2.07 0 1.695-0.375 3.391-0.75 5.461l-21.078 38.399-17.5 20.515-2.825 13.93c-1.504 3.012-3.386 5.836-6.023 5.836 0 1.129-1.129 3.387-2.258 5.648h-3.387l-11.101 14.305-11.106-7.719-4.8906 1.508-17.691 36.516v0.18701l-1.3165 2.824v4.141h-1.1289v4.894c-2.4453 2.45-4.707 4.708-4.707 7.153h-7.3359c0 7.344-2.4492 19.199-2.4492 28.801-2.2579 2.445-4.7032 7.339-7.1485 7.339 0 4.332-1.8828 10.543-2.2578 16.942 0 0 0-0.18799-0.1914-0.18799h-1.8789c-2.4492-3.199-5.2695-8.281-5.2695-12.047-1.5079-1.316-3.7657-3.765-6.0235-5.457-2.8242-8.472-4.7031-17.695-5.832-27.859l0.9414-4.332v-12.797l9.7852-52.328 6.207-8.094 19.387-32 4.7031-1.508 14.301-9.41 15.996-22.59 17.504-10.917 25.403-6.586 28.793-3.012v-1.695l3.765 2.07zm-9.972 37.269-0.567 0.942c0.188-0.18799 0.375-0.18799 0.567-0.18799v-0.754"/> <path d="m1152.6 477.61c17.31 0.56699 35.57 6.024 52.88 6.024-3.57-3.574-9.6-8.281-14.49-8.281l-1.13-1.317c6.02-2.449 18.07 0 25.22 0-3.58-3.578-10.73-8.472-14.49-12.047h13.36c-1.32-2.261-3.57-5.836-3.57-6.965 13.55 0 26.53 4.329 39.33 9.223l-4.9-7.531-30.29-30.305 4.7 9.414-3.2 3.387h-17.5l-1.5-1.695-3.2001 7.906-8.1 3.199h-5.83c-1.13 3.203-3.2001 6.402-3.2001 6.402l14.3 14.305h-34.43c-0.76001 4.141-1.32 8.281-1.51 12.047l-2.45-2.445v-1.321zm44.42-59.105c2.25-0.56299 4.32-1.129 6.2-1.879l-1.5 14.492-9.79-3.199h-3.1899c-0.38-0.56598-0.76001-1.129-0.95007-1.695 2.26-2.071 4.52-3.766 4.52-4.895h2.26l1.3101-2.445c0.38 0 0.76001-0.18799 1.14-0.379"/> </g> </g> </svg>